<?xml version="1.0" encoding="UTF-8" standalone="no"?>
<svg
   xmlns:dc="http://purl.org/dc/elements/1.1/"
   xmlns:cc="http://creativecommons.org/ns#"
   xmlns:rdf="http://www.w3.org/1999/02/22-rdf-syntax-ns#"
   xmlns:svg="http://www.w3.org/2000/svg"
   xmlns="http://www.w3.org/2000/svg"
   xmlns:sodipodi="http://sodipodi.sourceforge.net/DTD/sodipodi-0.dtd"
   xmlns:inkscape="http://www.inkscape.org/namespaces/inkscape"
   width="64"
   height="64"
   viewBox="0 0 16.933333 16.933334"
   version="1.1"
   id="svg858"
   inkscape:version="1.0.1 (c497b03c, 2020-09-10)"
   sodipodi:docname="favicon.svg">
  <defs
     id="defs852" />
  <sodipodi:namedview
     id="base"
     pagecolor="#ffffff"
     bordercolor="#666666"
     borderopacity="1.0"
     inkscape:pageopacity="0.0"
     inkscape:pageshadow="2"
     inkscape:zoom="4.04"
     inkscape:cx="38.212032"
     inkscape:cy="42.69768"
     inkscape:document-units="mm"
     inkscape:current-layer="layer1"
     inkscape:document-rotation="0"
     showgrid="false"
     units="px"
     inkscape:window-width="1251"
     inkscape:window-height="1027"
     inkscape:window-x="81"
     inkscape:window-y="25"
     inkscape:window-maximized="0" />
  <metadata
     id="metadata855">
    <rdf:RDF>
      <cc:Work
         rdf:about="">
        <dc:format>image/svg+xml</dc:format>
        <dc:type
           rdf:resource="http://purl.org/dc/dcmitype/StillImage" />
        <dc:title />
      </cc:Work>
    </rdf:RDF>
  </metadata>
  <g
     inkscape:label="Capa 1"
     inkscape:groupmode="layer"
     id="layer1">
    <g
       id="g51"
       transform="matrix(0.10381419,0,0,0.10381419,-3.3983759,-1.6817329)"
       style="display:inline;fill:#d40000;fill-opacity:1">
      <path
         style="fill:#d40000;fill-opacity:1;stroke-width:0.282222"
         d="m 38.729225,130.60842 c -0.351048,-0.44762 -0.341066,-0.45761 0.106555,-0.10656 0.271639,0.21304 0.493889,0.43529 0.493889,0.49389 0,0.23228 -0.231757,0.0828 -0.600444,-0.38733 z m 71.120005,-1.69334 c -0.35105,-0.44762 -0.34107,-0.4576 0.10655,-0.10655 0.47012,0.36869 0.61962,0.60044 0.38734,0.60044 -0.0586,0 -0.28086,-0.22225 -0.49389,-0.49389 z M 40.317446,105.98453 c 0.280949,-0.31045 0.574316,-0.56445 0.651927,-0.56445 0.07761,0 -0.08876,0.254 -0.369704,0.56445 -0.280949,0.31044 -0.574315,0.56444 -0.651927,0.56444 -0.07761,0 0.08876,-0.254 0.369704,-0.56444 z M 58.543062,89.733232 c 0.01355,-0.328775 0.08042,-0.395647 0.170508,-0.17051 0.08153,0.203728 0.0715,0.447144 -0.02227,0.540927 -0.09378,0.09378 -0.160482,-0.07291 -0.148228,-0.370417 z m 81.800808,-27.987039 -0.6842,-0.776111 0.77612,0.684194 c 0.42686,0.37631 0.77611,0.72556 0.77611,0.776111 0,0.221341 -0.22855,0.0412 -0.86803,-0.684194 z m -9.74212,-9.736667 -0.53763,-0.635 0.635,0.53763 c 0.59674,0.50524 0.76348,0.73237 0.53763,0.73237 -0.0536,0 -0.33931,-0.28575 -0.635,-0.635 z"
         id="path57" />
      <path
         style="fill:#d40000;fill-opacity:1;stroke-width:0.282222"
         d="m 136.83745,163.07326 c -1.397,-1.95797 -16.04409,-20.81764 -16.16822,-21.02478 -0.18531,-0.30923 14.2417,16.71161 19.12877,16.71161 h 5.95193 l -2.87535,3.59833 c -1.58144,1.97908 -3.01525,3.75053 -3.18624,3.93656 -0.23383,0.25439 -0.94047,-0.54417 -2.85089,-3.22172 z m -9.94332,-14.12068 -5.99222,-6.7025 -6.99617,-8.78759 78.8936,-21.53144 c 0,0 -17.68199,15.17827 -26.63737,24.31464 -8.95538,9.13638 -26.47363,30.04929 -26.47363,30.04929 l -6.80199,-10.6399 -5.99221,-6.7025 z m -65.127793,-2.51476 c -7.273227,-3.87273 -10.754096,-6.04075 -15.392862,-9.58728 -2.399482,-1.8345 -5.645653,-4.60859 -7.213713,-6.16464 -2.421857,-2.40331 -3.028739,-3.19649 -4.031663,-5.26933 -1.367944,-2.82726 -2.15151,-6.37185 -1.915486,-8.66503 0.411611,-3.99916 7.573373,-11.96906 17.376409,-19.337172 2.819506,-2.119184 5.802463,-4.301961 6.628792,-4.850612 l 1.502416,-0.997549 0.170016,-3.868076 C 59.29357,78.522055 62.56953,70.440546 68.164778,64.818687 72.195174,60.76912 81.761946,54.178884 96.620783,45.216275 101.60988,42.206932 121.34742,30.843742 123.39808,29.800197 l 1.23618,-0.629074 -0.15403,0.659479 c -0.0847,0.362713 -0.70015,3.344213 -1.36763,6.625554 l -1.2136,5.966076 1.3849,1.621035 c 4.3641,5.108243 16.80673,17.706569 22.9317,23.21866 l 2.88705,2.598155 h -8.73536 -8.73536 l 8.45108,64.346668 -22.15445,4.05056 -4.02282,-4.79482 c -5.14253,-6.12941 -9.32094,-9.68421 -12.9149,-10.9874 -2.312665,-0.83859 -10.78194,-0.90881 -16.137228,-0.13379 -5.916612,0.85626 -8.732995,1.52061 -11.996068,2.82976 -5.132844,2.05931 -7.356944,3.74219 -8.854153,6.69957 -0.767972,1.51695 -0.824385,1.84688 -0.809636,4.73501 0.01778,3.48275 0.481869,5.3889 2.374273,9.75206 0.60224,1.38854 1.00923,2.51559 0.904424,2.50456 -0.104809,-0.011 -2.22256,-1.10201 -4.706115,-2.42441 z m 56.162223,-8.18051 3.8713,-71.06547 h 6.63222 6.63222 l 14.03835,2.668242 4.2448,35.277778 -4.2448,-35.277778 25.97592,35.277778 -25.97592,-35.277778 c 0,0 26.04592,22.577779 26.13151,22.577779 0.12369,0 18.70708,15.515779 20.10518,16.786359 0.28863,0.26231 -0.23786,0.82338 -2.54,2.70683 -1.59726,1.30676 -5.35153,4.44038 -8.34283,6.9636 l -5.43872,4.58766 h -12.83517 -12.83517 v 5.36222 5.36222 h -6.63222 -6.63222 z"
         id="path53"
         sodipodi:nodetypes="ccscssccccczccccssssssscsssscsscsscccccsssssssssscccccccccsssscccccccc" />
    </g>
  </g>
</svg>
